<svg t="1745059777051" class="icon" viewBox="0 0 1024 1024" version="1.1"
  xmlns="http://www.w3.org/2000/svg" p-id="5170" width="200" height="200">
  <path
    d="M512 201.142857a27.428571 27.428571 0 0 1 27.428571 27.428572v566.857142a27.428571 27.428571 0 1 1-54.857142 0V228.571429A27.428571 27.428571 0 0 1 512 201.142857z m-71.753143 82.285714v54.857143H201.142857a9.142857 9.142857 0 0 0-8.886857 7.058286L192 347.428571v365.714286a9.142857 9.142857 0 0 0 7.058286 8.886857l2.084571 0.256h239.104v54.857143H201.142857a64 64 0 0 1-63.780571-58.733714L137.142857 713.142857v-365.714286a64 64 0 0 1 58.733714-63.780571L201.142857 283.428571h239.104z m382.610286 0a64 64 0 0 1 63.780571 58.733715l0.219429 5.266285v365.714286a64 64 0 0 1-58.733714 63.780572l-5.266286 0.219428h-239.140572v-54.857143H822.857143a9.142857 9.142857 0 0 0 8.886857-7.058285l0.256-2.084572v-365.714286a9.142857 9.142857 0 0 0-7.058286-8.886857L822.857143 338.285714h-239.140572v-54.857143H822.857143z"
    fill="currentColor" p-id="5171"></path>
</svg>
